<?xml version="1.0" encoding="UTF-8"?>
<svg xmlns="http://www.w3.org/2000/svg" viewBox="0 0 4247.58 3591.58">
  <defs>
    <style>
      .cls-1 {
        fill: #6d6e71;
      }

      .cls-1, .cls-2, .cls-3, .cls-4, .cls-5, .cls-6, .cls-7 {
        stroke-width: 0px;
      }

      .cls-2 {
        fill: #001c27;
      }

      .cls-8 {
        font-family: PlazaITC-Normal, Plaza;
        font-size: 500px;
      }

      .cls-4 {
        fill: #fff;
      }

      .cls-5 {
        fill: #ae1c27;
      }

      .cls-6 {
        fill: #e11e2d;
      }

      .cls-7 {
        fill: #be1e2d;
      }
    </style>
  </defs>
  <g id="Layer_1" data-name="Layer 1">
    <g>
      <path class="cls-4" d="M2054.72,3070.25c-447.61,173.78-895.23,347.56-1342.84,521.34C474.59,2980.37,237.29,2369.16,0,1757.95c447.61-173.78,895.23-347.56,1342.84-521.34,237.29,611.21,474.59,1222.42,711.88,1833.63ZM547.44,2803.73c-.07.58-.13,1.17-.2,1.75,3.34.71,6.65,1.7,10.03,2.09,46.36,5.36,87.91,22.47,126.28,49.01,29.16,20.17,61.11,36.04,96.73,40.08,23.42,2.65,47.44,1.58,71.08.24,42.82-2.43,84.34,6.36,126.2,12.48,10.48,1.53,20.89,3.54,31.34,5.33-3.74-2.92-7.76-4.13-11.82-5.24-32.77-8.97-65.02-19.04-94.02-37.67-8.62-5.54-14.72-12.31-19.42-21.17-10.5-19.81-12.28-39.67-4.94-61.27,18.39-54.18,12.59-106.42-17.8-154.8-15.05-23.95-33.16-45.98-50.04-68.77-3.56-4.8-7.76-9.12-13.06-15.27,0,3.97-.48,5.72.07,7.04,13.05,31.26,7.08,61.99-1.89,92.86-8.03,27.62-5.92,54.77,5.46,81.28,15.7,36.54,37.7,69.2,61.22,100.98,4.03,5.44,7.45,11.32,11.16,17-18.11-6.92-34.36-15.15-51.04-22.41-51.96-22.62-105.39-35.64-162.75-26.22-32.22,5.29-64.8,7.12-97.47,3.37-5.01-.57-10.09-.47-15.14-.68ZM565.84,2457.04c.4-.08.8-.15,1.2-.23-.72-3.32-1.33-6.67-2.18-9.95-6.71-25.86-14.64-51.47-19.87-77.62-4.49-22.43-1.47-44.78,16.53-61.22,13.61-12.43,28.36-24.01,43.94-33.82,28.2-17.76,53.05-38.55,66.09-69.85,7.34-17.62,12.75-36.33,16.6-55.05,7.11-34.55,13.72-69.08,30.43-100.67.7-1.32.94-2.88,1.4-4.33-3.26,1.39-5.89,3.32-7.36,5.9-17.85,31.43-44.6,52.63-76.03,69.58-36.76,19.82-60.39,50.76-67.02,92.42-6.48,40.68-16.39,80.38-28.93,119.51-.58,1.82-1.4,3.56-2.15,5.42-7.89-22.49-15.36-44.35-23.21-66.07-15.98-44.24-40.92-81.87-79.63-109.88-25.04-18.12-50.41-36.14-68.88-61.72-.45-.62-1.68-.69-4.31-1.67,3.21,5.14,5.72,8.83,7.9,12.7,8.73,15.57,19.47,30.43,25.57,46.98,11.25,30.52,21.82,61.59,28.88,93.28,8.85,39.76,26.05,72,63.25,91.35,3.73,1.94,7.17,4.53,10.54,7.08,24.1,18.29,43.53,39.96,52.63,69.76,3.96,12.97,9.68,25.41,14.61,38.08ZM1363.15,3067.55c.8.76,1.59,1.53,2.39,2.29,3.2-2.43,6.62-4.63,9.58-7.33,32.67-29.88,68.59-53.88,112.59-63.94,29.95-6.85,53.27-23.47,70.26-49.22,8.96-13.59,18.41-26.9,28.23-39.89,9.86-13.04,22.37-24.11,38.66-26.49,20.77-3.03,42.37-6.02,62.92-3.46,27.19,3.39,53.77,11.89,80.49,18.7,34.34,8.74,66.05,23.83,97.01,40.78,5.77,3.16,12.47,5.53,18.97,6.28,19.63,2.27,38.54,6.56,56.09,15.86,4.76,2.52,9.39,5.27,14.07,7.92-1.47-3.34-3.83-5.27-6.34-7-59.85-41.08-125.71-68.14-196.45-83.6-39.65-8.66-79.69-12.57-120.36-10.14-12.54.75-25.46.09-37.82-2.11-36.69-6.54-70.37-21.1-102.07-40.57-21.49-13.2-43.28-25.9-64.94-38.83,49.06,38.07,98.52,75.45,161.2,89.68-50.08,14.66-96.06,35.85-137.71,66.86-43.07,32.07-67.59,76.11-86.76,124.21ZM1489.21,2900.43c-.09-.44-.17-.89-.26-1.33-2.45.27-4.93.4-7.35.84-32.69,5.93-65.3,12.3-98.06,17.78-41.79,6.99-73.57-10.29-98.4-42.65-6.53-8.51-12.24-17.7-17.92-26.82-23.41-37.54-56.91-60.79-99.39-72.44-32.66-8.96-64.94-19.34-97.41-29.02-2.48-.74-5.13-.91-7.7-1.35,2.18,3.12,4.72,4.52,7.38,5.63,24.36,10.15,43.36,26.23,55.28,50.06,7.14,14.28,14.05,28.67,21.08,43,17.8,36.29,47.46,57.4,86.33,65.47,19.1,3.96,38.65,5.91,58.08,8.06,18,1.99,36.1,3.04,56.36,4.69-21.67,5.96-41.06,11.26-60.43,16.63-59.17,16.39-108.68,48-149.07,94.2-17.97,20.56-36.51,40.64-54.78,60.94-1.21,1.35-2.31,2.81-3.94,4.81,1.6-.24,2.37-.13,2.79-.46,39.29-31.37,85.15-45.47,134.2-51.7,22.32-2.83,44.48-6.65,64.57-18.05,24.53-13.93,43.74-33.88,62.25-54.52,25.3-28.2,55.51-47.85,92.54-57.18,18.19-4.58,35.92-11,53.85-16.59ZM897.08,1787.37c-.4-.59-.79-1.18-1.19-1.77-3.84,2.02-7.68,4.05-11.52,6.07-18.39,9.68-35.97,21.74-55.41,28.34-16.88,5.73-35.87,7.36-53.89,7.18-46.13-.46-82.94,15.82-110.17,53.69-8.52,11.85-18.44,22.92-28.94,33.08-13.53,13.11-28.29,24.95-43.38,38.08,6.74-30.81,13.45-58.95,18.97-87.32,7.83-40.22,6.7-79.95-11.11-117.74-6.37-13.52-15.78-25.71-21.29-39.52-7.91-19.83-13.53-40.58-19.46-58.9.13-1.25-.17-.02-.09,1.19.21,2.92.33,5.88.95,8.73,7.32,33.59,4.39,66.91-4.1,99.69-5.88,22.69-13.47,44.95-20.8,67.23-10.17,30.9-12.38,61.52-1.65,93.01,7.14,20.94,12.2,42.62,17.65,64.11,4.81,18.98,8.18,37.83,1.97,57.66-3.97,12.69-4.52,26.46-6.6,39.74.89.17,1.79.35,2.68.52,1.07-3.96,2.06-7.94,3.22-11.87,8.82-29.65,17.82-59.25,26.46-88.95,6.91-23.72,24.49-34.74,46.71-41.1,22.12-6.33,44.47-5.58,66.95-3.49,29.58,2.75,56.82-3.11,81.81-20,18.18-12.29,32.57-28.04,45.44-45.34,18.51-24.89,37.23-49.5,61.47-69.29,5.19-4.24,10.21-8.7,15.3-13.06ZM782.86,2788.08c.49-.56.99-1.13,1.48-1.69-14.78-14.96-29.5-29.99-44.36-44.88-21.59-21.62-30.53-46.37-19.84-76.42,4.37-12.28,7.51-25.02,12.25-37.14,9.56-24.4,12.33-49.36,6.72-74.88-4.48-20.37-9.76-40.57-15.33-60.67-8.36-30.18-12.81-60.6-7.51-91.83,1.27-7.47,3.22-14.83,4.86-22.24-2.52,1.74-3.88,3.84-5.01,6.05-11.06,21.76-22.33,43.42-33.04,65.34-10.12,20.72-23.45,40.83-28.67,62.8-12.57,52.84-2.25,104.23,18.89,153.59,3.48,8.13,7.82,15.9,11.51,23.33-17.71-9.68-34.79-20.54-53.1-28.58-18.04-7.92-37.34-12.99-56.09-19.31-.34,1.03-.68,2.07-1.02,3.1,4.82,1.9,9.75,3.57,14.44,5.73,21.57,9.96,43.44,19.36,64.51,30.29,30.18,15.66,53.56,40.03,77.99,63.08,16.42,15.49,34.16,29.59,51.31,44.31ZM1105.6,2938.62c-51.63-6.85-102.84-8.16-153.57,4.55-52.08,13.04-88.98,48.92-126.49,83.9,9.33-2.12,18.1-5.29,26.99-8.04,24.59-7.6,49.69-4.78,74.75-3.65,40.08,1.81,77.24-6.55,111.65-28.66,37.23-23.92,76.98-40.66,123.24-36.77,16.52,1.39,33.47-2.38,50.23-3.79-.07-.85-.14-1.7-.21-2.55-12.33.15-24.66.35-36.99.43-38.77.26-73.49-10.36-100.94-39.03-12.6-13.15-24.5-27-36.28-40.9-8.57-10.11-16.41-20.84-24.58-31.29,14.6,27.02,56.69,88.87,92.19,105.81ZM675.82,1731.85c-4.31,43.42-12.09,85.89-30.98,125.86,8.22-9.59,15.83-19.56,23.29-29.63,19.67-26.54,44.38-46.4,75.38-58.51,16.07-6.28,32.08-13.03,47.29-21.12,34-18.11,62.18-42.5,80.63-77.24,13.78-25.96,28.68-51.31,53.45-68.89.81-.57.93-2.11,2.2-5.23-4.89,1.58-8.13,2.5-11.28,3.68-10.98,4.1-21.73,8.89-32.91,12.32-26.48,8.11-53.28,15.19-79.71,23.44-27.92,8.72-49.91,25.79-63.67,51.68-11.6,21.81-22.45,44.15-31.7,67.04-9.12,22.57-21.22,42.6-40.11,61.43,6.43-29.45,11.69-56.73,8.12-84.81ZM365.19,2376.31l-1.31,2.17c3.28,1.85,6.44,3.96,9.86,5.5,30.97,13.91,55.86,34.41,71.66,65.05,3.43,6.65,7.46,13.01,11.26,19.47,14.5,24.65,33.88,43.96,61.51,53.12,14.19,4.7,29.04,7.34,43.48,11.34,21.46,5.95,39.15,16.7,49.98,37.47,5.63,10.81,13.64,20.38,20.58,30.51.18-3.58-1.02-6.21-2.41-8.76-15.74-28.93-26.55-59.29-28.36-92.56-1.85-34.06.82-67.71,7.2-101.15.65-3.4.9-6.88,1.33-10.33-13.84,42.53-19.32,85.86-14.32,130.4-48.9-94.23-135.72-124.72-230.45-142.23ZM427.55,1901.71c5.42,11.93,9.97,21.26,13.95,30.83,12.46,29.99,16.09,61.52,16.76,93.72.71,34.41,11.27,64.31,40.03,86.31,12.57,9.62,24.8,20.88,27.57,37.9,2.23,13.73,3.67,27.61,4.76,41.48,1.06,13.47,1.23,27.01,1.79,40.52.83-.04,1.67-.07,2.5-.11.04-5.17.16-10.34.12-15.51-.18-23.34,1.48-46.57,12.57-67.54,9.27-17.52,19.99-34.32,30.76-51,7.97-12.34,17.05-23.95,25.64-35.89-.86-.65-1.72-1.31-2.58-1.96-20.26,26.47-40.53,52.95-59.25,77.4-2.88-13.14-6.37-28.6-9.63-44.11-4.14-19.74-9.23-39.37-11.9-59.31-7.97-59.34-47.2-96.48-93.07-132.74Z"/>
      <path class="cls-3" d="M547.44,2803.73c5.05.21,10.13.11,15.14.68,32.67,3.75,65.25,1.92,97.47-3.37,57.35-9.42,110.79,3.6,162.75,26.22,16.67,7.26,32.93,15.49,51.04,22.41-3.7-5.68-7.13-11.56-11.16-17-23.52-31.78-45.53-64.44-61.22-100.98-11.39-26.51-13.49-53.66-5.46-81.28,8.98-30.87,14.94-61.61,1.89-92.86-.55-1.32-.07-3.08-.07-7.04,5.3,6.16,9.51,10.47,13.06,15.27,16.88,22.79,35,44.82,50.04,68.77,30.39,48.37,36.19,100.62,17.8,154.8-7.33,21.61-5.56,41.46,4.94,61.27,4.7,8.87,10.8,15.64,19.42,21.17,29,18.63,61.25,28.7,94.02,37.67,4.05,1.11,8.08,2.33,11.82,5.24-10.44-1.79-20.86-3.8-31.34-5.33-41.86-6.12-83.38-14.92-126.2-12.48-23.64,1.34-47.67,2.41-71.08-.24-35.62-4.04-67.57-19.91-96.73-40.08-38.37-26.53-79.92-43.65-126.28-49.01-3.38-.39-6.69-1.38-10.03-2.09.07-.58.13-1.17.2-1.75ZM617.45,2814.64c24.25,5.44,46.34,19.23,68,33.75,48.82,32.71,101.37,49.75,160.89,40.84,14.43-2.16,29.31-1.26,43.98-1.77-21.4-9.48-42.94-18.03-65.11-24.34-21.83-6.22-44.31-10.16-66.51-15.1,26.65-.5,52.53,4.27,77.7,11.89,24.95,7.55,49.38,16.87,75.23,25.83-90.11-61.86-184.93-99.2-294.18-71.09ZM861.33,2804.62c1.31-.16,2.62-.33,3.94-.49,3.68-12.73,8.12-25.29,10.91-38.22,9.47-43.92,3.07-85.81-19.75-124.42-11.74-19.87-25.92-38.31-39.04-57.36-1.27-1.85-2.8-3.53-4.21-5.29,3.48,25.52-1.85,49.25-8.55,72.92-5.81,20.49-7.18,41.63.32,61.65,7.5,20.04,17.15,39.35,26.95,58.42,6.73,13.1,15.34,25.24,23.11,37.8-12.81-35.68-16.14-72.37-17.45-109.44,7.93,34.81,15.85,69.62,23.78,104.43Z"/>
      <path class="cls-3" d="M565.84,2457.04c-4.92-12.68-10.64-25.11-14.61-38.08-9.11-29.8-28.54-51.47-52.63-69.76-3.37-2.56-6.81-5.14-10.54-7.08-37.2-19.35-54.4-51.59-63.25-91.35-7.05-31.69-17.63-62.76-28.88-93.28-6.1-16.55-16.84-31.41-25.57-46.98-2.17-3.88-4.69-7.56-7.9-12.7,2.63.99,3.85,1.05,4.31,1.67,18.47,25.58,43.84,43.6,68.88,61.72,38.71,28.01,63.65,65.63,79.63,109.88,7.85,21.73,15.33,43.59,23.21,66.07.74-1.86,1.56-3.6,2.15-5.42,12.54-39.14,22.45-78.83,28.93-119.51,6.64-41.66,30.26-72.6,67.02-92.42,31.43-16.95,58.19-38.14,76.03-69.58,1.47-2.58,4.1-4.51,7.36-5.9-.46,1.45-.7,3.01-1.4,4.33-16.7,31.59-23.32,66.12-30.43,100.67-3.85,18.72-9.27,37.43-16.6,55.05-13.03,31.3-37.88,52.09-66.09,69.85-15.59,9.81-30.33,21.39-43.94,33.82-18,16.44-21.02,38.8-16.53,61.22,5.23,26.15,13.15,51.76,19.87,77.62.85,3.28,1.46,6.63,2.18,9.95-.4.08-.8.15-1.2.23ZM636.12,2196.03c-12.3,32.82-44.52,56.85-65.44,89.09,16.77-9.72,33.09-19.75,48.99-30.41,25.02-16.78,42.48-39.95,50.7-68.62,9.18-32.01,15.83-64.74,23.04-94.93-17.82,11.84-36.45,24.66-55.54,36.78-27.11,17.21-48.05,39.16-55.4,71.37-5.57,24.42-10.09,49.08-15.02,73.65-.06.29.8.77,1.64,1.54,23.29-27.27,46.54-54.49,67.02-78.47ZM522.95,2356.91c-26.97-46.8-61.52-89.23-75.01-143.08,16.37,52.11,55.21,89.84,83.98,133.88-17.62-89.59-56.87-165.07-137.78-210.1,6.41,16.5,14.65,34.98,20.75,54.14,8,25.12,13.35,51.11,21.74,76.08,4.56,13.59,10.34,28.78,20.36,38.1,20.26,18.85,43.79,34.19,65.96,50.97Z"/>
      <path class="cls-3" d="M1363.15,3067.55c19.17-48.1,43.69-92.13,86.76-124.21,41.65-31.01,87.62-52.2,137.71-66.86-62.68-14.24-112.15-51.61-161.2-89.68,21.66,12.92,43.45,25.63,64.94,38.83,31.7,19.47,65.38,34.04,102.07,40.57,12.36,2.2,25.28,2.86,37.82,2.11,40.67-2.43,80.71,1.48,120.36,10.14,70.74,15.46,136.59,42.52,196.45,83.6,2.51,1.72,4.87,3.66,6.34,7-4.69-2.65-9.32-5.4-14.07-7.92-17.56-9.3-36.47-13.59-56.09-15.86-6.5-.75-13.2-3.13-18.97-6.28-30.95-16.95-62.67-32.04-97.01-40.78-26.72-6.8-53.3-15.31-80.49-18.7-20.55-2.56-42.15.44-62.92,3.46-16.29,2.37-28.8,13.44-38.66,26.49-9.82,12.99-19.26,26.3-28.23,39.89-16.99,25.76-40.3,42.38-70.26,49.22-44.01,10.06-79.92,34.06-112.59,63.94-2.96,2.7-6.38,4.9-9.58,7.33-.8-.76-1.59-1.53-2.39-2.29ZM1373.59,3053.11c16.61-12.36,30.51-22.97,44.69-33.19,22.36-16.11,48.03-24.38,74.39-31.13,27.74-7.1,47.66-24.11,61.64-49.01,6.51-11.6,14.78-22.21,22.33-33.21,2.39-3.48,5.07-6.77,7.62-10.14-13.99,5.55-26.87,11.88-38.87,19.58-12.03,7.72-23.38,16.55-34.67,25.36-10.88,8.5-21.3,17.61-31.92,26.45,28.72-33.67,63.3-59.66,102.66-79.53-3.25-.13-5.96.63-8.66,1.37-31.08,8.46-59.17,23.63-87.55,38.33-39.64,20.54-70.62,49.72-92.23,88.79-6.2,11.21-12.1,22.59-19.44,36.34Z"/>
      <path class="cls-3" d="M1489.21,2900.43c-17.94,5.59-35.66,12.01-53.85,16.59-37.03,9.33-67.24,28.98-92.54,57.18-18.52,20.64-37.72,40.59-62.25,54.52-20.09,11.4-42.25,15.22-64.57,18.05-49.05,6.22-94.91,20.32-134.2,51.7-.42.33-1.19.22-2.79.46,1.63-2,2.73-3.46,3.94-4.81,18.27-20.31,36.8-40.38,54.78-60.94,40.39-46.21,89.89-77.82,149.07-94.2,19.37-5.36,38.76-10.67,60.43-16.63-20.25-1.64-38.36-2.69-56.36-4.69-19.43-2.15-38.98-4.1-58.08-8.06-38.87-8.07-68.53-29.18-86.33-65.47-7.03-14.33-13.94-28.73-21.08-43-11.92-23.83-30.92-39.91-55.28-50.06-2.66-1.11-5.21-2.51-7.38-5.63,2.57.44,5.22.61,7.7,1.35,32.47,9.68,64.75,20.05,97.41,29.02,42.47,11.66,75.98,34.9,99.39,72.44,5.69,9.12,11.39,18.31,17.92,26.82,24.83,32.36,56.62,49.64,98.4,42.65,32.76-5.48,65.38-11.85,98.06-17.78,2.42-.44,4.9-.56,7.35-.84.09.44.17.89.26,1.33ZM1305.26,2905.9c-16.73-12.35-27.32-29.41-38.06-46.52-21.35-34.02-48.93-61.07-88.17-73.5-24.69-7.83-49.8-14.37-71.47-20.56,9.24,14.34,20.22,30.59,30.33,47.36,5.87,9.73,10.37,20.29,15.44,30.51,11.32,22.85,29.37,38.55,51.97,49.68,27.6,13.59,57.96,14.16,87.42,19.02,1.91.31,3.94-.06,5.91-.11-35.03-15.89-63.16-39.9-88.18-68.03,29.95,23.17,57.54,49.85,94.81,62.15ZM1364.97,2930.46c-100.02,11.03-185.54,48.23-244.12,136.42,33.86-18.68,70.44-22.91,106.71-28.37,24-3.61,45.99-12.16,64.99-27.45,8.36-6.73,16.36-13.98,24.04-21.48,17.3-16.89,34.3-34.09,51.14-50.88-52.57,13.15-101.12,36.71-147.8,64.59,43.69-33.68,92.84-56.33,145.04-72.83Z"/>
      <path class="cls-3" d="M897.08,1787.37c-5.1,4.36-10.11,8.82-15.3,13.06-24.24,19.78-42.96,44.4-61.47,69.29-12.87,17.3-27.26,33.05-45.44,45.34-24.99,16.89-52.23,22.75-81.81,20-22.48-2.09-44.83-2.84-66.95,3.49-22.22,6.35-39.8,17.37-46.71,41.1-8.64,29.7-17.65,59.3-26.46,88.95-1.17,3.93-2.15,7.91-3.22,11.87-.89-.17-1.79-.35-2.68-.52,2.08-13.28,2.62-27.05,6.6-39.74,6.21-19.82,2.84-38.68-1.97-57.66-5.45-21.49-10.51-43.16-17.65-64.11-10.73-31.48-8.51-62.11,1.65-93.01,7.33-22.29,14.93-44.55,20.8-67.23,8.49-32.79,11.42-66.1,4.1-99.69-.62-2.84-.74-5.81-.95-8.73-.09-1.21.22-2.44.09-1.19,5.94,18.32,11.55,39.07,19.46,58.9,5.51,13.8,14.92,25.99,21.29,39.52,17.81,37.8,18.93,77.53,11.11,117.74-5.52,28.37-12.23,56.52-18.97,87.32,15.09-13.14,29.85-24.98,43.38-38.08,10.5-10.17,20.42-21.23,28.94-33.08,27.22-37.88,64.03-54.16,110.17-53.69,18.02.18,37.02-1.45,53.89-7.18,19.43-6.6,37.02-18.65,55.41-28.34,3.84-2.02,7.68-4.05,11.52-6.07.4.59.79,1.18,1.19,1.77ZM564.67,1999.88c1.26-3.89,2.48-7.79,3.8-11.66,1.37-4.01,2.62-8.07,4.3-11.95,19.78-45.68,30.39-93.62,33.29-143.08,1.01-17.34-.94-35.17-3.94-52.35-4.73-27.05-19.59-50.03-33.35-75.98-.54,9.76.16,17.13-1.51,23.93-7.07,28.72-13.34,57.78-22.75,85.76-11.41,33.93-15.39,67.16-2.49,101.3,1.38,3.64,2.16,7.52,3.18,11.29,4.68,17.43,9.34,34.87,14,52.3,1.12.04,2.24.09,3.36.13,4.96-43.92,9.92-87.83,14.87-131.75,3.79,51.38-5.2,101.57-12.75,152.07ZM645.88,1924.5c16.18.65,31.81.2,47.15,2.11,42.8,5.33,78.77-7.44,107.03-39.74,20.34-23.26,39.28-47.75,58.8-71.73.16-.2-.27-.89-.59-1.86-18.52,12.61-39.52,16.79-61.1,18.79-13.94,1.29-27.93,2.08-41.9,3.06-21.27,1.5-40.26,8.78-55.21,24.12-17.92,18.38-35.05,37.53-52.47,56.39-.17.18.37,1.03,1.01,2.69,41.28-16.03,82.46-32.01,123.65-48-39.52,23.8-82.89,38.7-126.35,54.18Z"/>
      <path class="cls-3" d="M782.86,2788.08c-17.15-14.72-34.89-28.81-51.31-44.31-24.43-23.05-47.81-47.42-77.99-63.08-21.07-10.93-42.94-20.33-64.51-30.29-4.69-2.17-9.62-3.84-14.44-5.73.34-1.03.68-2.07,1.02-3.1,18.75,6.32,38.04,11.39,56.09,19.31,18.31,8.04,35.39,18.91,53.1,28.58-3.69-7.43-8.03-15.2-11.51-23.33-21.14-49.37-31.46-100.75-18.89-153.59,5.22-21.97,18.55-42.08,28.67-62.8,10.71-21.93,21.98-43.59,33.04-65.34,1.13-2.21,2.48-4.31,5.01-6.05-1.64,7.41-3.59,14.77-4.86,22.24-5.3,31.23-.85,61.64,7.51,91.83,5.57,20.1,10.85,40.31,15.33,60.67,5.61,25.52,2.83,50.47-6.72,74.88-4.75,12.12-7.89,24.86-12.25,37.14-10.69,30.05-1.75,54.8,19.84,76.42,14.86,14.88,29.58,29.91,44.36,44.88-.49.56-.99,1.13-1.48,1.69ZM697.4,2690.65c-3.55-14.62-7.32-27.1-9.47-39.86-2.17-12.81-3.05-25.88-3.91-38.87-.88-13.32-1.34-26.68-1.46-40.03-.12-12.52.44-25.04.7-37.56,5.09,51.27,3.84,103.15,23.22,153.32,5.02-17.88,7.81-34.91,14.5-50.25,16.12-37,15.5-73.52,4.1-111.59-9.87-32.97-19.57-66.37-17.06-101.61.01-.19-.91-.44-1.37-.65-5.98,10.09-12.61,19.83-17.75,30.29-10.02,20.39-23.29,40.32-27.96,62-13.42,62.23,1.32,120.12,36.48,174.82Z"/>
      <path class="cls-3" d="M1105.6,2938.62c-35.5-16.94-77.59-78.79-92.19-105.81,8.17,10.45,16.01,21.18,24.58,31.29,11.78,13.9,23.68,27.74,36.28,40.9,27.45,28.67,62.17,39.29,100.94,39.03,12.33-.08,24.66-.28,36.99-.43.07.85.14,1.7.21,2.55-16.76,1.41-33.71,5.18-50.23,3.79-46.26-3.89-86.02,12.85-123.24,36.77-34.41,22.11-71.57,30.47-111.65,28.66-25.06-1.13-50.16-3.95-74.75,3.65-8.89,2.75-17.65,5.92-26.99,8.04,37.5-34.99,74.41-70.86,126.49-83.9,50.72-12.71,101.94-11.4,153.57-4.55ZM955.32,2975.15c-.23-.97-.46-1.94-.69-2.91,38.45-9.18,76.89-18.36,113.63-27.13-57.2-20.06-168.68,13.65-215.27,64.46,18.51-.73,39.79-4.26,60.4-1.9,64.99,7.44,117.56-21.36,168.87-56.32-42.32,7.93-84.63,15.87-126.95,23.8Z"/>
      <path class="cls-3" d="M675.82,1731.85c3.57,28.08-1.69,55.36-8.12,84.81,18.89-18.83,30.99-38.86,40.11-61.43,9.25-22.89,20.1-45.23,31.7-67.04,13.77-25.9,35.75-42.96,63.67-51.68,26.43-8.26,53.23-15.33,79.71-23.44,11.18-3.43,21.93-8.22,32.91-12.32,3.14-1.17,6.38-2.09,11.28-3.68-1.27,3.12-1.4,4.66-2.2,5.23-24.77,17.58-39.67,42.93-53.45,68.89-18.44,34.75-46.63,59.14-80.63,77.24-15.21,8.1-31.22,14.85-47.29,21.12-31,12.11-55.71,31.97-75.38,58.51-7.47,10.08-15.07,20.05-23.29,29.63,18.9-39.97,26.68-82.44,30.98-125.86ZM716.12,1758.57c29.72-31.66,60.9-61.35,97.91-84.29-34.4,31.66-70.4,61.65-99.65,98.54,24.48-9.65,48.85-19.03,72.09-30.65,33.98-16.98,61.21-41.6,79.13-75.84,6.18-11.81,13.7-22.92,20.86-34.19,2.84-4.47,6.37-8.5,10.99-14.58-31.98,9.07-61.71,16.51-90.7,26.19-12.99,4.34-26.25,11.23-36.28,20.38-27.84,25.39-41.06,59.99-54.36,94.44Z"/>
      <path class="cls-3" d="M365.19,2376.31c94.73,17.51,181.55,48,230.45,142.23-4.99-44.54.48-87.87,14.32-130.4-.43,3.45-.68,6.93-1.33,10.33-6.38,33.44-9.05,67.09-7.2,101.15,1.8,33.27,12.62,63.63,28.36,92.56,1.38,2.54,2.58,5.18,2.41,8.76-6.94-10.13-14.94-19.7-20.58-30.51-10.83-20.77-28.51-31.51-49.98-37.47-14.43-4-29.29-6.64-43.48-11.34-27.63-9.16-47-28.47-61.51-53.12-3.8-6.46-7.83-12.81-11.26-19.47-15.8-30.64-40.7-51.14-71.66-65.05-3.42-1.54-6.58-3.65-9.86-5.5l1.31-2.17ZM506.33,2460.35c.51-.67,1.01-1.33,1.52-2,23.84,16.62,47.69,33.24,73.37,51.14-40.14-69.37-104.63-98.23-175.65-117.55,20.14,14.74,35.66,33.12,47.24,54.99,3.5,6.61,7.42,13.01,11.29,19.42,13.9,23.06,32.22,41.11,58.7,48.68,20.68,5.91,41.72,10.56,62.69,15.79-22.47-27.4-50.09-49.73-79.16-70.47Z"/>
      <path class="cls-3" d="M427.55,1901.71c45.87,36.26,85.1,73.4,93.07,132.74,2.68,19.94,7.76,39.57,11.9,59.31,3.25,15.51,6.75,30.97,9.63,44.11,18.72-24.46,38.99-50.93,59.25-77.4.86.65,1.72,1.31,2.58,1.96-8.59,11.94-17.67,23.55-25.64,35.89-10.77,16.67-21.49,33.47-30.76,51-11.09,20.97-12.75,44.2-12.57,67.54.04,5.17-.08,10.34-.12,15.51-.83.04-1.67.07-2.5.11-.56-13.51-.73-27.05-1.79-40.52-1.09-13.87-2.53-27.76-4.76-41.48-2.77-17.02-14.99-28.28-27.57-37.9-28.75-22-39.31-51.9-40.03-86.31-.67-32.2-4.3-63.73-16.76-93.72-3.98-9.57-8.53-18.9-13.95-30.83ZM525.62,2128.63c-10.37-37.21-37.06-65.52-40.06-97.77,13.36,25.12,28.86,54.27,44.36,83.43-4.79-28.65-10.25-56.65-16.07-84.57-5.47-26.25-15.98-50.41-33.05-71.15-9.53-11.57-20.63-21.84-31.03-32.69-.72.52-1.44,1.05-2.15,1.57,12.48,26.82,18.06,55,18.01,84.42-.02,11.06-.59,22.53,2.04,33.07,3.49,13.98,7.39,29.06,15.63,40.36,11.27,15.46,26.8,27.82,42.33,43.33Z"/>
      <path class="cls-4" d="M617.45,2814.64c109.25-28.11,204.08,9.23,294.18,71.09-25.85-8.96-50.27-18.27-75.23-25.83-25.18-7.62-51.06-12.39-77.7-11.89,22.2,4.94,44.68,8.89,66.51,15.1,22.17,6.31,43.7,14.87,65.11,24.34-14.67.51-29.56-.39-43.98,1.77-59.52,8.91-112.07-8.13-160.89-40.84-21.66-14.51-43.75-28.31-68-33.75Z"/>
      <path class="cls-4" d="M861.33,2804.62c-7.93-34.81-15.85-69.62-23.78-104.43,1.32,37.06,4.64,73.76,17.45,109.44-7.77-12.57-16.38-24.7-23.11-37.8-9.8-19.07-19.45-38.38-26.95-58.42-7.5-20.02-6.13-41.16-.32-61.65,6.71-23.68,12.03-47.4,8.55-72.92,1.41,1.76,2.93,3.44,4.21,5.29,13.11,19.06,27.29,37.49,39.04,57.36,22.82,38.62,29.22,80.5,19.75,124.42-2.79,12.92-7.22,25.49-10.91,38.22-1.31.16-2.62.33-3.94.49Z"/>
      <path class="cls-4" d="M636.12,2196.03c-20.48,23.97-43.73,51.2-67.02,78.47-.84-.77-1.7-1.24-1.64-1.54,4.92-24.57,9.44-49.23,15.02-73.65,7.35-32.2,28.29-54.16,55.4-71.37,19.09-12.11,37.72-24.94,55.54-36.78-7.21,30.18-13.86,62.92-23.04,94.93-8.22,28.68-25.68,51.84-50.7,68.62-15.9,10.66-32.22,20.69-48.99,30.41,20.92-32.23,53.14-56.26,65.44-89.09Z"/>
      <path class="cls-4" d="M522.95,2356.91c-22.18-16.79-45.7-32.12-65.96-50.97-10.02-9.32-15.79-24.51-20.36-38.1-8.39-24.98-13.74-50.96-21.74-76.08-6.1-19.16-14.35-37.64-20.75-54.14,80.91,45.03,120.16,120.51,137.78,210.1-28.77-44.04-67.61-81.78-83.98-133.88,13.49,53.85,48.05,96.29,75.01,143.08Z"/>
      <path class="cls-4" d="M1373.59,3053.11c7.34-13.74,13.23-25.12,19.44-36.34,21.61-39.07,52.59-68.25,92.23-88.79,28.38-14.7,56.47-29.88,87.55-38.33,2.71-.74,5.41-1.49,8.66-1.37-39.36,19.87-73.94,45.87-102.66,79.53,10.62-8.84,21.03-17.95,31.92-26.45,11.28-8.81,22.63-17.64,34.67-25.36,12-7.7,24.88-14.03,38.87-19.58-2.55,3.37-5.23,6.66-7.62,10.14-7.56,11-15.82,21.62-22.33,33.21-13.98,24.9-33.9,41.9-61.64,49.01-26.36,6.75-52.03,15.02-74.39,31.13-14.18,10.22-28.08,20.84-44.69,33.19Z"/>
      <path class="cls-4" d="M1305.26,2905.9c-37.27-12.31-64.86-38.98-94.81-62.15,25.03,28.13,53.16,52.15,88.18,68.03-1.97.05-4,.42-5.91.11-29.46-4.85-59.82-5.43-87.42-19.02-22.6-11.13-40.65-26.83-51.97-49.68-5.06-10.22-9.57-20.78-15.44-30.51-10.11-16.77-21.09-33.02-30.33-47.36,21.68,6.19,46.78,12.73,71.47,20.56,39.23,12.44,66.81,39.48,88.17,73.5,10.74,17.1,21.33,34.17,38.06,46.52Z"/>
      <path class="cls-4" d="M1364.97,2930.46c-52.19,16.5-101.34,39.15-145.04,72.83,46.68-27.89,95.23-51.44,147.8-64.59-16.84,16.79-33.84,33.99-51.14,50.88-7.68,7.5-15.68,14.75-24.04,21.48-19,15.29-40.99,23.84-64.99,27.45-36.27,5.46-72.85,9.7-106.71,28.37,58.58-88.19,144.1-125.39,244.12-136.42Z"/>
      <path class="cls-4" d="M564.67,1999.88c7.54-50.5,16.54-100.69,12.75-152.07-4.96,43.92-9.92,87.83-14.87,131.75-1.12-.04-2.24-.09-3.36-.13-4.67-17.43-9.33-34.87-14-52.3-1.01-3.78-1.8-7.65-3.18-11.29-12.9-34.13-8.92-67.37,2.49-101.3,9.41-27.98,15.68-57.03,22.75-85.76,1.67-6.79.97-14.17,1.51-23.93,13.76,25.94,28.62,48.93,33.35,75.98,3,17.18,4.95,35.01,3.94,52.35-2.89,49.46-13.51,97.4-33.29,143.08-1.68,3.88-2.93,7.94-4.3,11.95-1.32,3.87-2.54,7.77-3.8,11.66Z"/>
      <path class="cls-4" d="M645.88,1924.5c43.46-15.48,86.82-30.38,126.35-54.18-41.18,15.99-82.37,31.98-123.65,48-.65-1.66-1.18-2.5-1.01-2.69,17.42-18.86,34.56-38.01,52.47-56.39,14.96-15.35,33.94-22.63,55.21-24.12,13.97-.98,27.96-1.76,41.9-3.06,21.58-2,42.58-6.18,61.1-18.79.33.98.76,1.66.59,1.86-19.52,23.98-38.45,48.47-58.8,71.73-28.26,32.31-64.23,45.07-107.03,39.74-15.34-1.91-30.96-1.46-47.15-2.11Z"/>
      <path class="cls-4" d="M697.4,2690.65c-35.15-54.7-49.89-112.59-36.48-174.82,4.67-21.68,17.94-41.6,27.96-62,5.14-10.47,11.78-20.2,17.75-30.29.46.21,1.38.46,1.37.65-2.51,35.24,7.19,68.63,17.06,101.61,11.39,38.07,12.02,74.59-4.1,111.59-6.68,15.34-9.48,32.38-14.5,50.25-19.37-50.16-18.12-102.04-23.22-153.32-.26,12.52-.81,25.04-.7,37.56.13,13.35.58,26.71,1.46,40.03.86,12.99,1.74,26.06,3.91,38.87,2.16,12.76,5.92,25.24,9.47,39.86Z"/>
      <path class="cls-4" d="M955.32,2975.15c42.32-7.93,84.63-15.87,126.95-23.8-51.31,34.96-103.88,63.77-168.87,56.32-20.61-2.36-41.9,1.16-60.4,1.9,46.59-50.81,158.07-84.51,215.27-64.46-36.73,8.77-75.18,17.95-113.63,27.13.23.97.46,1.94.69,2.91Z"/>
      <path class="cls-4" d="M716.12,1758.57c13.3-34.45,26.52-69.05,54.36-94.44,10.03-9.14,23.3-16.04,36.28-20.38,28.98-9.69,58.72-17.12,90.7-26.19-4.62,6.08-8.14,10.11-10.99,14.58-7.16,11.27-14.69,22.39-20.86,34.19-17.92,34.24-45.15,58.87-79.13,75.84-23.25,11.62-47.61,21-72.09,30.65,29.25-36.89,65.25-66.88,99.65-98.54-37.01,22.94-68.2,52.63-97.91,84.29Z"/>
      <path class="cls-4" d="M506.33,2460.35c29.07,20.75,56.69,43.07,79.16,70.47-20.97-5.23-42.01-9.88-62.69-15.79-26.48-7.57-44.81-25.63-58.7-48.68-3.87-6.41-7.79-12.81-11.29-19.42-11.58-21.87-27.1-40.25-47.24-54.99,71.02,19.33,135.52,48.18,175.65,117.55-25.68-17.9-49.53-34.52-73.37-51.14-.51.67-1.01,1.33-1.52,2Z"/>
      <path class="cls-4" d="M525.62,2128.63c-15.53-15.51-31.06-27.87-42.33-43.33-8.24-11.31-12.14-26.38-15.63-40.36-2.63-10.54-2.06-22.02-2.04-33.07.05-29.42-5.53-57.6-18.01-84.42.72-.52,1.44-1.05,2.15-1.57,10.39,10.85,21.5,21.12,31.03,32.69,17.08,20.74,27.58,44.9,33.05,71.15,5.82,27.92,11.29,55.92,16.07,84.57-15.5-29.15-31-58.31-44.36-83.43,3,32.25,29.69,60.56,40.06,97.77Z"/>
    </g>
  </g>
  <g id="Layer_2" data-name="Layer 2">
    <path class="cls-1" d="M1441.36,1773.2c9.42,39.4,24.64,65.37,28.04,70.98,11.36,18.75,23.3,32.53,31.52,41.16-28.44,49.48-85.33,148.44-85.33,148.44,0,0-40-78.64-74.67-89.24,0,0,9.33-123.26,0-137.83,0,0,5.33-21.99-29.33-69.97,0,0-25.33-49.31-181.33-67.86,0,0-68.74-2.36-19.26,112.8,49.48,115.16,146.37,88.94,146.37,88.94,0,0,114.22,308.51,114.22,325.74s121.33,559.29,121.33,559.29l-16,35.78s-228-394.95-273.33-633.51-201.33-600.37-201.33-600.37c0,0-52-5.3-53.33-38.43-1.33-33.13,6.67-58.31,6.67-58.31l30.67-70.24s17.89-218.4,33.33-239.88c2.22-3.09,70.67-149.76,70.67-149.76l-74.67-42.41,24-74.22-461.33-182.9-37.33-108.68c45.31-93.02,179.32-335.09,466.67-474.47,295.45-143.3,682.54-143.86,973.33,56.55,196.27,135.27,281.15,315.55,312.89,385.23,154.53,339.22,67.56,657.3,39.11,748.37,0,0-32,26.51-37.33,68.92-5.33,42.41,16,238.56,16,238.56l117.33,120.88-13.33,48.77-269.33-220s-10.67,50.36,72,153.74l42.67,98.07s-194.67,511.58-266.67,583.15-301.33,322.5-301.33,322.5l-72.46-940.1s228.9,10.6,264.46-155.51c35.56-166.11-206.22-70.68-206.22-70.68-49.45,15.95-88.06,34.36-114.67,48.61-63.6,34.06-125.06,66.98-129.98,117.66-1.36,14,1.8,27.22,7.32,50.27Z"/>
    <g id="Layer_3" data-name="Layer 3">
      <path class="cls-6" d="M1150.96,848.12l-114.08,39.49-564.09-214.79s217.92-396.37,461.22-530.05C1177.32,9.09,1429.23,0,1429.23,0c0,0,387.41,1.22,542.4,149.63l-775.72,468.94-44.95,229.54Z"/>
      <text class="cls-8" transform="translate(718.69 3419.42)"><tspan x="0" y="0">CENTURION</tspan></text>
    </g>
    <path class="cls-7" d="M705.69,542.98C921.43,253.54,1205,94.91,1421.41,62.98c222.14-32.78,421.95,25.54,421.95,25.54,28.15,7.27,51.04,16.84,86,29.8,86.66,50.21,187.48,125.65,272.82,238.22,299.56,395.15,144.06,899.11,120.23,972.22-71.6-235.84-186.47-392.93-261.58-480-94.71-109.79-189.2-216.33-350.84-256.51-115.43-28.69-217.11-11.61-277.68,4.06-42.41,17.44-102.51,47.69-163.49,99.56-58.37,49.64-96.4,101.1-119.89,138.67-147.75-97.19-295.49-194.37-443.24-291.56Z"/>
    <g id="Layer_4" data-name="Layer 4">
      <path class="cls-2" d="M1028.03,889.65l119.7-41.48c7.58-24.2,21.1-58.55,46.01-94.54,54.51-78.77,127.21-112.94,172.66-133.61,0,0,112.12-51,241.19-46.81,194.22,6.29,408.56,167.57,545.78,421.33-25.48-22.52-50.96-45.04-76.44-67.56-28.38-48.08-95.39-146.28-220.44-211.56-36.59-19.1-123.01-64.21-224-58.67-154.75,8.5-296.32,133.36-373.33,309.33l-168.89,24.89-71.11-37.33,8.89-64Z"/>
    </g>
    <g id="Layer_5" data-name="Layer 5">
      <polygon class="cls-5" points="705.69 542.98 472.78 672.76 1033.9 887.61 1147.14 848.76 1148.92 832.76 705.69 542.98"/>
    </g>
  </g>
</svg>